<svg version="1.1" viewBox="0.0 0.0 303.01837270341207 304.0813648293963" fill="none" stroke="none" stroke-linecap="square" stroke-miterlimit="10" xmlns:xlink="http://www.w3.org/1999/xlink" xmlns="http://www.w3.org/2000/svg"><clipPath id="p.0"><path d="m0 0l303.01837 0l0 304.08136l-303.01837 0l0 -304.08136z" clip-rule="nonzero"/></clipPath><g clip-path="url(#p.0)"><path fill="#000000" fill-opacity="0.0" d="m0 0l303.01837 0l0 304.08136l-303.01837 0z" fill-rule="evenodd"/><path fill="#000000" fill-opacity="0.0" d="m187.24 57.376l-163.2576 0l0 222.624l222.624 0l0 -170.6784" fill-rule="evenodd"/><path stroke="#000000" stroke-width="24.0" stroke-linejoin="round" stroke-linecap="round" d="m187.24 57.376l-163.2576 0l0 222.624l222.624 0l0 -170.6784" fill-rule="evenodd"/><path fill="#000000" fill-opacity="0.0" d="m164.9776 139.0048l111.31201 -111.312004" fill-rule="evenodd"/><path stroke="#000000" stroke-width="24.0" stroke-linejoin="round" stroke-linecap="round" d="m164.9776 139.0048l111.31201 -111.312004" fill-rule="evenodd"/><path fill="#000000" fill-opacity="0.0" d="m224.344 23.9824l55.656006 0" fill-rule="evenodd"/><path stroke="#000000" stroke-width="24.0" stroke-linejoin="round" stroke-linecap="round" d="m224.344 23.9824l55.656006 0" fill-rule="evenodd"/><path fill="#000000" fill-opacity="0.0" d="m280.0 23.9824l0 55.656" fill-rule="evenodd"/><path stroke="#000000" stroke-width="24.0" stroke-linejoin="round" stroke-linecap="round" d="m280.0 23.9824l0 55.656" fill-rule="evenodd"/></g></svg>